<?xml version="1.0" encoding="UTF-8" standalone="no"?>
<svg
   xmlns:osb="http://www.openswatchbook.org/uri/2009/osb"
   xmlns:dc="http://purl.org/dc/elements/1.1/"
   xmlns:cc="http://creativecommons.org/ns#"
   xmlns:rdf="http://www.w3.org/1999/02/22-rdf-syntax-ns#"
   xmlns:svg="http://www.w3.org/2000/svg"
   xmlns="http://www.w3.org/2000/svg"
   xmlns:sodipodi="http://sodipodi.sourceforge.net/DTD/sodipodi-0.dtd"
   xmlns:inkscape="http://www.inkscape.org/namespaces/inkscape"
   version="1.0"
   width="256.000000pt"
   height="197.000000pt"
   viewBox="0 0 256.000000 197.000000"
   preserveAspectRatio="xMidYMid meet"
   id="svg2"
   inkscape:version="0.91 r13725"
   sodipodi:docname="logo2.svg">
  <defs
     id="defs12">
    <linearGradient
       id="linearGradient4421"
       osb:paint="solid">
      <stop
         style="stop-color:#f90000;stop-opacity:1;"
         offset="0"
         id="stop4423" />
    </linearGradient>
    <linearGradient
       id="linearGradient4403"
       osb:paint="solid">
      <stop
         style="stop-color:#000000;stop-opacity:1;"
         offset="0"
         id="stop4405" />
    </linearGradient>
    <linearGradient
       id="linearGradient4397"
       osb:paint="solid">
      <stop
         style="stop-color:#000000;stop-opacity:1;"
         offset="0"
         id="stop4399" />
    </linearGradient>
  </defs>
  <sodipodi:namedview
     pagecolor="#ffffff"
     bordercolor="#666666"
     borderopacity="1"
     objecttolerance="10"
     gridtolerance="10"
     guidetolerance="10"
     inkscape:pageopacity="0"
     inkscape:pageshadow="2"
     inkscape:window-width="1920"
     inkscape:window-height="991"
     id="namedview10"
     showgrid="false"
     inkscape:zoom="2"
     inkscape:cx="189.65458"
     inkscape:cy="74.223783"
     inkscape:window-x="0"
     inkscape:window-y="24"
     inkscape:window-maximized="1"
     inkscape:current-layer="layer2" />
  <metadata
     id="metadata4">
Created by potrace 1.15, written by Peter Selinger 2001-2017
<rdf:RDF>
  <cc:Work
     rdf:about="">
    <dc:format>image/svg+xml</dc:format>
    <dc:type
       rdf:resource="http://purl.org/dc/dcmitype/StillImage" />
    <dc:title></dc:title>
  </cc:Work>
</rdf:RDF>
</metadata>
  <g
     inkscape:groupmode="layer"
     id="layer1"
     inkscape:label="N" />
  <g
     inkscape:groupmode="layer"
     id="layer2"
     inkscape:label="crayon">
    <g
       id="g4411"
       transform="matrix(1.465942,0,0,1.5650264,-51.791929,-46.472597)"
       style="fill:#000000;fill-opacity:1">
      <g
         style="fill:#000000;fill-opacity:1;stroke:none"
         id="g6"
         transform="matrix(0.09874536,-0.01579096,-0.01579096,-0.09874536,43.392788,210.51984)">
        <path
           sodipodi:nodetypes="ccccccsscccccscccc"
           inkscape:connector-curvature="0"
           id="path8"
           d="m 1027.7859,1431.608 c -69.00005,-73 -108.00005,-136 -206.00005,-338 -95,-194 -161,-302 -226,-366 -86,-85 -188,-115 -244,-71 -20,15 -26,29 -24,48 3,22 11,29 57,43 67,22 85.99136,47.53725 81.72505,81.48978 -2.76025,21.96691 -27.14202,51.46784 -77.14202,51.46784 -106,0 -149.58303,-155.95762 -63.58303,-228.95762 62,-52 153,-42 248,29 87,63 144,148 258,380 95,195 168,324 192.00005,339 6,3 2,-16 -8,-42 -34.00005,-89 -50.00005,-207 -50.00005,-368 0,-141 71.46365,-461.1274 82.46355,-473.1274 l 82.6766,139.68703 c -32.2763,117.18692 -131.25481,519.66137 -29.1402,807.44037 11,39 -20,26 -73.9999,-32 z"
           style="fill:#000000;fill-opacity:1" />
      </g>
      <g
         transform="matrix(0.13974263,-0.06001177,0.06001177,0.13974263,112.2166,60.500496)"
         id="g4273"
         style="fill:#000000;fill-opacity:1">
        <path
           style="fill:#000000;fill-opacity:1"
           inkscape:connector-curvature="0"
           d="m 422.953,176.019 c 0.549,-0.48 1.09,-0.975 1.612,-1.498 l 21.772,-21.772 c 12.883,-12.883 12.883,-33.771 0,-46.654 L 405.903,65.661 c -12.883,-12.883 -33.771,-12.883 -46.653,0 l -21.772,21.772 c -0.523,0.523 -1.018,1.064 -1.498,1.613 l 86.973,86.973 z"
           id="path4275" />
        <polygon
           style="fill:#000000;fill-opacity:1"
           points="56,456 63.658,405.341 71.316,354.683 114.317,397.684 157.317,440.684 106.658,448.342 "
           id="polygon4277" />
        <polygon
           style="fill:#000000;fill-opacity:1"
           points="411.348,187.74 349.143,125.535 118.982,355.694 106.541,343.253 336.701,113.094 324.26,100.653 81.659,343.253 168.747,430.341 "
           id="polygon4279" />
      </g>
    </g>
  </g>
</svg>
